<?xml version="1.0" encoding="UTF-8"?>
<svg id="_图层_1" xmlns="http://www.w3.org/2000/svg" version="1.1" xmlns:xlink="http://www.w3.org/1999/xlink" viewBox="0 0 35.72 44.02">
  <!-- Generator: Adobe Illustrator 29.6.0, SVG Export Plug-In . SVG Version: 2.1.1 Build 207)  -->
  <defs>
    <style>
      .st0 {
        fill: url(#_未命名的渐变1);
      }

      .st1 {
        fill: url(#_未命名的渐变);
      }

      .st2 {
        fill: url(#_未命名的渐变_2);
      }
    </style>
    <linearGradient id="_未命名的渐变_2" data-name="未命名的渐变 2" x1="309.87" y1="1427.38" x2="304.85" y2="1427.93" gradientTransform="translate(-1208.91 814.35) rotate(45) scale(1 -1)" gradientUnits="userSpaceOnUse">
      <stop offset="0" stop-color="#8ac6ff"/>
      <stop offset="1" stop-color="#a6cbf0"/>
    </linearGradient>
    <linearGradient id="_未命名的渐变" data-name="未命名的渐变" x1="14.83" y1="6.4" x2="1.33" y2="24.45" gradientUnits="userSpaceOnUse">
      <stop offset="0" stop-color="#8ac6ff"/>
      <stop offset="1" stop-color="#a6cbf0"/>
    </linearGradient>
    <linearGradient id="_未命名的渐变1" data-name="未命名的渐变" x1="32.07" y1="20.19" x2="16.18" y2="41.43" xlink:href="#_未命名的渐变"/>
  </defs>
  <path class="st2" d="M34.84,4.74c1.89.85.32,3.33-.91,4.36-7.23,6.73-24.48,24.48-31.28,30.07-3.15,1.34-3.35-1.9-1.35-3.64,4.24-4.18,9.8-9.55,14.72-14.35,4.43-4.31,8.37-8.15,12.13-11.8,2.5-2.16,4.32-5.15,6.63-4.67l.07.02h-.01Z"/>
  <g>
    <path class="st1" d="M21.98,11.75L5.45,27.54c-.26-1.2-.38-2.39-.38-3.57V5.75c.01-.65.16-1.23.45-1.75.29-.52.69-.91,1.19-1.17.51-.26,1.05-.36,1.64-.29.59.07,1.15.29,1.68.67l11.95,8.54Z"/>
    <path class="st0" d="M32.49,28.27c.03,1.3-.08,2.56-.35,3.79-.26,1.24-.67,2.38-1.21,3.42-.54,1.05-1.23,2.01-2.05,2.85-.82.85-1.77,1.55-2.84,2.1-1.07.55-2.19.91-3.35,1.08s-2.33.17-3.51,0c-1.18-.16-2.34-.5-3.49-.98-1.15-.49-2.24-1.13-3.28-1.91-.97-.74-1.88-1.59-2.72-2.56l19.14-18.29c.6.8,1.12,1.66,1.59,2.57.67,1.3,1.17,2.62,1.51,3.96.34,1.34.52,2.67.56,3.97Z"/>
  </g>
</svg>