<?xml version="1.0" encoding="UTF-8"?>
<svg id="_图层_1" data-name="图层_1" xmlns="http://www.w3.org/2000/svg" version="1.1" xmlns:xlink="http://www.w3.org/1999/xlink" viewBox="0 0 37.58 44.39">
  <!-- Generator: Adobe Illustrator 29.6.0, SVG Export Plug-In . SVG Version: 2.1.1 Build 207)  -->
  <defs>
    <style>
      .st0 {
        fill: url(#_未命名的渐变_26);
      }

      .st1 {
        fill: url(#_未命名的渐变_13);
        fill-rule: evenodd;
      }
    </style>
    <linearGradient id="_未命名的渐变_13" data-name="未命名的渐变 13" x1="27.57" y1="7.03" x2="8.93" y2="31.95" gradientTransform="translate(0 45.16) scale(1 -1)" gradientUnits="userSpaceOnUse">
      <stop offset="0" stop-color="#8ac6ff"/>
      <stop offset="1" stop-color="#a6cbf0"/>
    </linearGradient>
    <linearGradient id="_未命名的渐变_26" data-name="未命名的渐变 26" x1="129.21" y1="829.44" x2="124.19" y2="829.99" gradientTransform="translate(-658.36 519.2) rotate(45) scale(1 -1)" gradientUnits="userSpaceOnUse">
      <stop offset="0" stop-color="#8ac6ff"/>
      <stop offset="1" stop-color="#a6cbf0"/>
    </linearGradient>
  </defs>
  <path class="st1" d="M7.13,25.86l14.55-14.15L13.14,3.57c-1.87-2.08-6.33-1.64-6.33,2.92l.32,19.36ZM28.27,17.97l-18.53,18.45c2.42,3.76,5.81,5.72,10.82,5.72,7.62,0,13.8-5.83,13.8-13.02,0-3.65-1.59-6.95-4.15-9.31l-1.94-1.84Z"/>
  <path class="st0" d="M34.84,4.65c1.89.85.32,3.33-.91,4.36-7.23,6.73-24.48,24.48-31.28,30.07-3.15,1.34-3.35-1.9-1.35-3.64,4.24-4.18,9.8-9.55,14.72-14.35,4.43-4.31,8.37-8.15,12.13-11.8,2.5-2.16,4.32-5.15,6.63-4.67l.07.02Z"/>
</svg>