<?xml version="1.0" encoding="UTF-8"?>
<svg id="_图层_1" xmlns="http://www.w3.org/2000/svg" version="1.1" xmlns:xlink="http://www.w3.org/1999/xlink" viewBox="0 0 27.53 43.7">
  <!-- Generator: Adobe Illustrator 29.6.0, SVG Export Plug-In . SVG Version: 2.1.1 Build 207)  -->
  <defs>
    <style>
      .st0 {
        fill: url(#_新建渐变色板_1);
      }
    </style>
    <linearGradient id="_新建渐变色板_1" data-name="新建渐变色板 1" x1="0" y1="21.88" x2="27.42" y2="21.88" gradientUnits="userSpaceOnUse">
      <stop offset="0" stop-color="#8ac6ff"/>
      <stop offset="1" stop-color="#a6cbf0"/>
    </linearGradient>
  </defs>
  <path class="st0" d="M2.08,32.13c-.68-1.32-1.2-2.7-1.55-4.13C.17,26.58,0,25.16,0,23.75V5.53c.01-.65.16-1.23.45-1.75.29-.52.69-.91,1.19-1.17.51-.26,1.05-.36,1.64-.29.59.07,1.15.29,1.68.67l14.81,10.59c1.15.82,2.2,1.78,3.14,2.89.95,1.11,1.76,2.32,2.44,3.65.67,1.3,1.17,2.62,1.51,3.96s.52,2.67.56,3.97c.03,1.31-.08,2.57-.35,3.8-.26,1.23-.67,2.37-1.21,3.42-.54,1.05-1.23,2.01-2.05,2.85-.82.85-1.77,1.55-2.84,2.1-1.07.55-2.19.91-3.35,1.08-1.16.17-2.33.17-3.51,0s-2.34-.5-3.49-.98c-1.15-.49-2.24-1.13-3.28-1.91-1.04-.79-2.01-1.71-2.91-2.77-.89-1.06-1.67-2.23-2.34-3.53Z"/>
</svg>